<svg width="18" height="19" viewBox="0 0 18 19" fill="none" xmlns="http://www.w3.org/2000/svg">
<path d="M6 3.24219C6 2.13762 6.89543 1.24219 8 1.24219H11.3438H13C14.1046 1.24219 15 2.13762 15 3.24219V4.89844V10.4922C15 11.5968 14.1046 12.4922 13 12.4922H8C6.89543 12.4922 6 11.5968 6 10.4922V3.24219Z" fill="#072C74" fill-opacity="0.5"/>
<path d="M3 6.24219C3 5.13762 3.89543 4.24219 5 4.24219H8.34375H10C11.1046 4.24219 12 5.13762 12 6.24219V7.89844V13.4922C12 14.5968 11.1046 15.4922 10 15.4922H5C3.89543 15.4922 3 14.5968 3 13.4922V6.24219Z" fill="#CCD6E6"/>
</svg>
